<svg xmlns="http://www.w3.org/2000/svg" width="481" height="481" viewBox="0 0 481 481">
  <g fill="#FFF" fill-rule="evenodd">
    <path fill-rule="nonzero" d="M196.682 10.106c-105.21 0-190.5 85.29-190.5 190.5s85.29 190.5 190.5 190.5 190.5-85.29 190.5-190.5c-.115-105.163-85.337-190.385-190.5-190.5zm3.5 38a151.839 151.839 0 01124.128 64.56l-20 20a31.571 31.571 0 00-16.128-4.56c-17.673 0-32 14.327-32 32a31.573 31.573 0 004.536 16.152l-52.384 52.384a31.025 31.025 0 00-32.304 0l-36.384-36.384a31.573 31.573 0 004.536-16.152c.022-17.638-14.258-31.954-31.896-31.976-14.587-.018-27.332 9.849-30.968 23.976h-29.68c15.147-69.947 76.976-119.895 148.544-120zm73.854 284.906a151.863 151.863 0 01-73.854 19.093c-83.89.057-151.943-67.902-152-151.792-.004-5.414.282-10.825.856-16.208h32.28c3.637 14.085 16.317 23.945 30.864 24a31.573 31.573 0 0016.152-4.536l36.384 36.384a31.573 31.573 0 00-4.536 16.152c0 17.673 14.327 32 32 32 17.673 0 32-14.327 32-32a31.573 31.573 0 00-4.536-16.152l52.384-52.384a31.573 31.573 0 0016.152 4.536c17.673 0 32-14.327 32-32a31.573 31.573 0 00-4.536-16.152l17.44-17.432c40.715 73.328 14.277 165.777-59.05 206.491z"/>
    <path fill-rule="nonzero" d="M400.182 80.106c14.547-.055 27.227-9.914 30.864-24h49.136v-16h-49.136c-3.637-14.086-16.317-23.945-30.864-24-17.673 0-32 14.327-32 32a31.573 31.573 0 004.536 16.152l-14.056 14.056C291.407-9.307 165.855-25.817 78.234 41.438-9.387 108.693-25.897 234.246 41.358 321.867c63.484 82.707 179.855 102.77 267.368 46.095l24.144 24.144 11.312 11.312 64.4 64.4c16.379 16.379 42.933 16.379 59.312 0 16.379-16.379 16.379-42.933 0-59.312l-64.4-64.4-11.312-11.312-24.144-24.144c42.859-66.016 42.859-151.071 0-217.088l16-16a31.581 31.581 0 0016.144 4.544zm56.4 339.712c10.246 10.016 10.433 26.442.417 36.688-10.016 10.246-26.442 10.433-36.688.417a23.421 23.421 0 01-.417-.417l-64.4-64.4 36.688-36.688 64.4 64.4zm-75.712-75.712l-36.688 36.688-22.144-22.144c1.128-.864 2.184-1.816 3.296-2.704 1.112-.888 2.4-1.952 3.592-2.952 1.752-1.472 3.48-2.96 5.176-4.488.872-.8 1.704-1.6 2.56-2.4a205.802 205.802 0 009.528-9.528c.8-.856 1.6-1.688 2.4-2.56a198.055 198.055 0 004.488-5.176 154.965 154.965 0 002.952-3.592c.88-1.104 1.832-2.16 2.696-3.288l22.144 22.144zm-31.024-37.16c-2.52 3.52-5.12 6.968-7.864 10.288-.8.968-1.656 1.904-2.48 2.856a180.23 180.23 0 01-7.584 8.288 152.889 152.889 0 01-3.464 3.464 169.917 169.917 0 01-8.288 7.584c-.952.8-1.888 1.672-2.856 2.48-3.32 2.744-6.768 5.344-10.288 7.864-82.816 59.165-197.915 39.992-257.08-42.824C-9.223 224.13 9.95 109.031 92.766 49.866 175.582-9.299 290.681 9.873 349.846 92.69c45.781 64.082 45.781 150.174 0 214.256z"/>
    <rect width="193" height="68" x="297.18" y="357.686" rx="16" transform="rotate(47 393.68 391.686)"/>
  </g>
</svg>